Coordinates
version=1
nRows=17
nColumns=24
inDegrees=yes

Units are S.I. units (second, meters, Newtons, ...)
Angles are in degrees.

endheader
time	pelvis_tilt	pelvis_list	pelvis_rotation	pelvis_tx	pelvis_ty	pelvis_tz	hip_flexion_r	hip_adduction_r	hip_rotation_r	knee_angle_r	ankle_angle_r	subtalar_angle_r	mtp_angle_r	hip_flexion_l	hip_adduction_l	hip_rotation_l	knee_angle_l	ankle_angle_l	subtalar_angle_l	mtp_angle_l	lumbar_extension	lumbar_bending	lumbar_rotation
      0.30400000	      0.70058201	      2.28986523	     -1.72942507	     -0.86825447	      1.05315344	      0.28486519	     24.16297588	     -1.19511439	     -5.15880843	     -5.38048342	      5.38308999	      2.74018403	     10.36572746	    -15.94437979	      4.22035430	      2.58827187	     -6.55966035	     18.25304726	      5.84685903	      3.02218353	    -12.60969006	     -2.40909187	     -3.01660031
      0.30816667	      0.75888112	      2.25497771	     -1.64459256	     -0.86209093	      1.05224758	      0.28503591	     24.13990405	     -1.11789614	     -4.99375922	     -5.77079473	      5.38612811	      2.65953386	     10.36818000	    -16.14903417	      4.16688852	      2.67063354	     -7.03772949	     18.43093450	      5.82335594	      3.03711080	    -12.62650717	     -2.27270059	     -3.01384959
      0.31233333	      0.82506683	      2.19665491	     -1.55961486	     -0.85590702	      1.05137792	      0.28524108	     24.07943115	     -1.00839712	     -4.72033301	     -6.16071324	      5.25596289	      2.33863922	     10.38347282	    -16.30608860	      4.07411851	      2.56412327	     -7.63325706	     18.67511384	      6.14012762	      3.10849523	    -12.67778414	     -2.09524198	     -3.07114917
      0.31650000	      0.86532679	      2.15888756	     -1.47467392	     -0.84966914	      1.05049710	      0.28540987	     24.08181293	     -0.93172675	     -4.56114699	     -6.68421219	      5.19383197	      2.24525876	     10.38763574	    -16.45738039	      4.01625370	      2.65033800	     -8.18379388	     18.78878453	      6.10584921	      3.12502555	    -12.69159734	     -1.94569732	     -3.05329607
      0.32066667	      0.91835980	      2.09913673	     -1.37787161	     -0.84339223	      1.04966036	      0.28561974	     24.01354636	     -0.82163860	     -4.24196183	     -7.13755377	      4.95060493	      1.75749751	     10.42680906	    -16.54853795	      3.90762767	      2.45803075	     -8.89999623	     19.05733038	      6.55855340	      3.25451710	    -12.68718020	     -1.76298610	     -3.10920191
      0.32483333	      0.95662793	      2.04374774	     -1.27959245	     -0.83708746	      1.04884396	      0.28580878	     23.98167008	     -0.72437883	     -4.00458601	     -7.68061209	      4.71434912	      1.40169910	     10.47775169	    -16.61777486	      3.80769542	      2.34757041	     -9.62276748	     19.24006821	      6.86282920	      3.40913379	    -12.67481783	     -1.59055387	     -3.11033630
      0.32900000	      1.02350417	      1.98683150	     -1.17923343	     -0.83078332	      1.04810951	      0.28600359	     23.91240084	     -0.62701469	     -3.76246845	     -8.24256722	      4.42689732	      1.01124812	     10.53929258	    -16.69992359	      3.70180138	      2.23424097	    -10.37918207	     19.38257032	      7.16569200	      3.60196940	    -12.70596333	     -1.40759135	     -3.13733002
      0.33316667	      1.07071259	      1.92969507	     -1.07682378	     -0.82443748	      1.04737002	      0.28620521	     23.86196812	     -0.53002279	     -3.52466002	     -8.83317809	      4.08473318	      0.58104424	     10.60850969	    -16.73446552	      3.58927312	      2.09490587	    -11.19930593	     19.50787672	      7.49781538	      3.83620846	    -12.69993377	     -1.22440318	     -3.15279014
      0.33733333	      1.12037352	      1.86521349	     -0.96589338	     -0.81806813	      1.04669279	      0.28639471	     23.80019191	     -0.43008954	     -3.30218075	     -9.43347135	      3.68474395	      0.11290407	     10.67390146	    -16.74778725	      3.46079818	      1.93172208	    -12.06322967	     19.60086842	      7.86995906	      4.08613399	    -12.69412263	     -1.02974583	     -3.17077544
      0.34150000	      1.19025825	      1.80932824	     -0.85147908	     -0.81173021	      1.04608483	      0.28660548	     23.72007414	     -0.34255845	     -3.09856688	    -10.05647181	      3.28208558	     -0.31053334	     10.82102707	    -16.73204655	      3.32611878	      1.68536883	    -13.02549031	     19.68852073	      8.38145338	      4.66017667	    -12.73633936	     -0.86584867	     -3.14821543
      0.34566667	      1.17164541	      1.75551649	     -0.74782294	     -0.80529507	      1.04538167	      0.28682941	     23.73992336	     -0.25158803	     -2.88250336	    -10.71003319	      2.79528227	     -0.83300196	     10.86882476	    -16.62575428	      3.20167248	      1.52541968	    -13.98088430	     19.67764056	      8.69586513	      4.93836975	    -12.62095649	     -0.66564106	     -3.19842379
      0.34983333	      1.28094311	      1.68251852	     -0.62402412	     -0.79894707	      1.04492848	      0.28703564	     23.62064316	     -0.16025962	     -2.76990693	    -11.37303806	      2.36800281	     -1.18238248	     11.11056316	    -16.58388969	      3.02231533	      1.17014929	    -15.07619872	     19.70673008	      9.38301860	      6.31454973	    -12.71892694	     -0.49541818	     -3.09223533
      0.35400000	      1.29028019	      1.60971200	     -0.51559665	     -0.79251784	      1.04439685	      0.28727625	     23.59273075	     -0.05113735	     -2.53995907	    -12.01168317	      1.79331463	     -1.82460927	     11.12206933	    -16.45839460	      2.86510172	      1.00978962	    -16.12239678	     19.58212781	      9.65855041	      6.56957738	    -12.63179653	     -0.25887077	     -3.21107582
      0.35816667	      1.31378803	      1.53833415	     -0.39833372	     -0.78611238	      1.04392369	      0.28752736	     23.56548433	      0.04434830	     -2.39053283	    -12.69454614	      1.29020460	     -2.30900231	     11.13301578	    -16.27901937	      2.67680125	      0.68120977	    -17.29952891	     19.49148655	     10.25932257	      6.92118469	    -12.59368984	     -0.06106346	     -3.19001035
      0.36233333	      1.37641731	      1.46063880	     -0.28587683	     -0.77975619	      1.04356415	      0.28779978	     23.50239221	      0.14505393	     -2.25829218	    -13.39339306	      0.81348658	     -2.78063781	     11.13237280	    -16.10675579	      2.47275682	      0.33675464	    -18.53352709	     19.32809540	     10.85720788	      7.34356111	    -12.61026806	      0.14898518	     -3.18270724
      0.36650000	      1.43236247	      1.39104297	     -0.17265385	     -0.77338636	      1.04326948	      0.28807023	     23.45425680	      0.22958765	     -2.17006177	    -14.11930891	      0.38168995	     -3.15456818	     11.08970962	    -15.90752461	      2.27244379	      0.02404449	    -19.78290510	     18.97018870	     11.33086038	     12.01804012	    -12.61503596	      0.33220083	     -3.08791866
      0.37066667	      1.46395997	      1.31244069	     -0.04338380	     -0.76704016	      1.04299609	      0.28835096	     23.42883792	      0.31949286	     -2.08930897	    -14.84662714	      0.00170415	     -3.57177423	     11.06663148	    -15.63067371	      2.04215996	     -0.30744436	    -21.13393983	     18.67776302	     11.90301151	     12.10492713	    -12.58416838	      0.53880468	     -3.14968485
